#!OML:ASF I:\Actors\actors\Patient Classification 2\Patient 1\Session 1\actor1.ASF
:FULLY-SPECIFIED
:DEGREES
480
root -0.786513 18.0964 5.87261 -1.82651 2.31174 -6.86419
lowerback 5.08341 -3.75551 -4.77455
upperback 1.11177 -5.28146 -2.02889
thorax -1.45713 -2.6177 0.894091
lowerneck -17.2271 -5.26808 -7.66095
upperneck 33.4631 -8.50095 8.45949
head 15.3494 -3.51314 3.318
rclavicle 6.16729e-014 4.29375e-014
rhumerus 58.1037 -0.512684 1.01864
rradius 100.805
rwrist -12.991
rhand 0.743918 -6.12841
rfingers 7.12502
rthumb 26.3027 -34.3248
lclavicle 6.16729e-014 4.29375e-014
lhumerus 69.156 -60.5223 23.3895
lradius 106.728
lwrist 45.0089
lhand -13.2913 -38.5289
lfingers 7.12502
lthumb 12.8124 -8.94207
rfemur 0 0 0
rtibia 0
rfoot 0 0
rtoes 0
lfemur 21.5771 -10.6771 -11.0353
ltibia -23.1089
lfoot -1.06088 19.7528
ltoes -8.38171
481
root -0.787433 18.0956 5.88074 -1.86053 2.32978 -6.89132
lowerback 5.12788 -3.8449 -4.82382
upperback 0.943455 -5.41161 -1.91621
thorax -1.63383 -2.67607 1.0538
lowerneck -17.0077 -5.09555 -7.76099
upperneck 33.4484 -8.19137 8.38673
head 15.2548 -3.41141 3.36645
rclavicle -1.01007e-014 1.74931e-014
rhumerus 58.2449 -0.435135 0.900315
rradius 100.78
rwrist -12.9286
rhand 0.362774 -5.96987
rfingers 7.12502
rthumb 25.9378 -34.2202
lclavicle -1.01007e-014 1.74931e-014
lhumerus 66.8882 -59.3959 26.8005
lradius 106.668
lwrist 50.2824
lhand -14.3909 -34.872
lfingers 7.12502
lthumb 11.7521 -5.2217
rfemur 0 0 0
rtibia 0
rfoot 0 0
rtoes 0
lfemur 21.6603 -10.74 -11.0159
ltibia -23.1401
lfoot -1.06641 19.7922
ltoes -8.38343
482
root -0.787532 18.0929 5.89055 -1.92233 2.32563 -6.87067
lowerback 5.13254 -3.85272 -4.80759
upperback 0.947723 -5.4216 -1.93101
thorax -1.63446 -2.6812 1.03052
lowerneck -17.1975 -5.02155 -7.6444
upperneck 33.4565 -8.08326 8.32596
head 15.2801 -3.35261 3.33831
rclavicle -3.83189e-014 -7.95139e-015
rhumerus 58.166 -0.760797 0.634808
rradius 100.843
rwrist -13.4597
rhand 0.565847 -6.62433
rfingers 7.12502
rthumb 26.1322 -34.8461
lclavicle -3.83189e-014 -7.95139e-015
lhumerus 65.9915 -58.2042 28.6841
lradius 106.528
lwrist 53.0035
lhand -14.1344 -33.4178
lfingers 7.12502
lthumb 11.9995 -3.78178
rfemur 0 0 0
rtibia 0
rfoot 0 0
rtoes 0
lfemur 21.7856 -10.7593 -11.062
ltibia -23.1572
lfoot -1.07936 19.8019
ltoes -8.48159
483
root -0.787921 18.0899 5.89877 -1.97616 2.27228 -6.82507
lowerback 5.13598 -3.86022 -4.83805
upperback 0.931904 -5.4341 -1.92686
thorax -1.64884 -2.68673 1.05305
lowerneck -17.3794 -4.93637 -7.55997
upperneck 33.5142 -7.93919 8.22834
head 15.3227 -3.28803 3.30879
rclavicle -1.70602e-014 -5.40694e-014
rhumerus 58.2005 -1.23727 0.425742
rradius 100.815
rwrist -13.8978
rhand 0.636532 -7.154
rfingers 7.12502
rthumb 26.1999 -35.3657
lclavicle -1.70602e-014 -5.40694e-014
lhumerus 65.5445 -57.1855 29.8633
lradius 106.37
lwrist 53.6598
lhand -14.7159 -32.5308
lfingers 7.12502
lthumb 11.4388 -2.86281
rfemur 0 0 0
rtibia 0
rfoot 0 0
rtoes 0
lfemur 21.8978 -10.7904 -11.1413
ltibia -23.1522
lfoot -1.15641 19.8784
ltoes -8.38612
484
root -0.790306 18.0882 5.90558 -1.99906 2.19969 -6.74924
lowerback 5.15865 -3.89034 -4.99894
upperback 0.821616 -5.48771 -1.84382
thorax -1.74935 -2.70847 1.23541
lowerneck -17.3381 -4.82759 -7.68008
upperneck 33.5605 -7.73333 8.21053
head 15.3162 -3.21994 3.36396
rclavicle -3.23025e-016 1.59028e-015
rhumerus 58.4023 -1.59041 0.2411
rradius 100.797
rwrist -14.2213
rhand 0.858171 -7.47408
rfingers 7.12502
rthumb 26.4121 -35.6541
lclavicle -3.23025e-016 1.59028e-015
lhumerus 65.043 -56.4302 30.9273
lradius 106.286
lwrist 53.666
lhand -14.8534 -32.0164
lfingers 7.12502
lthumb 11.3061 -2.34117
rfemur 0 0 0
rtibia 0
rfoot 0 0
rtoes 0
lfemur 21.9769 -10.8645 -11.2494
ltibia -23.1445
lfoot -1.28725 20.014
ltoes -8.22704
485
root -0.793641 18.0855 5.91337 -2.03885 2.13404 -6.74046
lowerback 5.17317 -3.90586 -5.08341
upperback 0.7413 -5.51584 -1.75468
thorax -1.82208 -2.71888 1.37891
lowerneck -17.2788 -4.75799 -7.78808
upperneck 33.5346 -7.59165 8.20896
head 15.2787 -3.17569 3.40919
rclavicle 7.8023e-015 1.11319e-014
rhumerus 58.5517 -1.89929 0.0640395
rradius 100.716
rwrist -14.4572
rhand 1.01082 -7.50356
rfingers 7.12502
rthumb 26.5582 -35.6616
lclavicle 7.8023e-015 1.11319e-014
lhumerus 64.8721 -55.917 31.5066
lradius 106.301
lwrist 53.4722
lhand -14.6161 -31.8335
lfingers 7.12502
lthumb 11.535 -2.17092
rfemur 0 0 0
rtibia 0
rfoot 0 0
rtoes 0
lfemur 22.0708 -10.8508 -11.2667
ltibia -23.1444
lfoot -1.37289 20.066
ltoes -8.16042
486
root -0.796032 18.0814 5.92156 -2.10545 2.07021 -6.80855
lowerback 5.15011 -3.89492 -5.0248
upperback 0.742856 -5.4957 -1.71032
thorax -1.80987 -2.70962 1.38921
lowerneck -17.3382 -4.71688 -7.75565
upperneck 33.5001 -7.5152 8.16269
head 15.2628 -3.14328 3.39626
rclavicle -5.85172e-015 3.81667e-014
rhumerus 58.579 -2.24198 -0.135839
rradius 100.571
rwrist -14.665
rhand 0.883701 -7.52754
rfingers 7.12502
rthumb 26.4365 -35.7039
lclavicle -5.85172e-015 3.81667e-014
lhumerus 65.2584 -55.6325 31.2471
lradius 106.397
lwrist 52.4551
lhand -14.3184 -32.2574
lfingers 7.12502
lthumb 11.8221 -2.61108
rfemur 0 0 0
rtibia 0
rfoot 0 0
rtoes 0
lfemur 22.1858 -10.7382 -11.1855
ltibia -23.1519
lfoot -1.34862 20.0239
ltoes -8.15409
487
root -0.79765 18.0784 5.92959 -2.16933 2.00987 -6.8564
lowerback 5.14977 -3.87622 -4.9572
upperback 0.740672 -5.46713 -1.69833
thorax -1.81873 -2.69566 1.3631
lowerneck -17.3589 -4.64798 -7.62572
upperneck 33.4079 -7.41241 8.07606
head 15.2004 -3.09344 3.35217
rclavicle 4.63417e-014 -1.11319e-014
rhumerus 58.5942 -2.53803 -0.380478
rradius 100.456
rwrist -15.0421
rhand 0.781389 -7.80292
rfingers 7.12502
rthumb 26.3386 -35.994
lclavicle 4.63417e-014 -1.11319e-014
lhumerus 65.949 -55.573 30.373
lradius 106.545
lwrist 50.0934
lhand -13.6102 -33.3451
lfingers 7.12502
lthumb 12.505 -3.73924
rfemur 0 0 0
rtibia 0
rfoot 0 0
rtoes 0
lfemur 22.309 -10.678 -11.1358
ltibia -23.1728
lfoot -1.34847 20.0159
ltoes -7.98498
488
root -0.799834 18.0764 5.93742 -2.19539 1.9614 -6.85852
lowerback 5.16176 -3.85447 -4.93918
upperback 0.693234 -5.44021 -1.69566
thorax -1.8774 -2.68028 1.35774
lowerneck -17.3036 -4.5718 -7.47309
upperneck 33.2811 -7.31237 7.99841
head 15.1041 -3.04278 3.3071
rclavicle -3.762e-014 1.59028e-015
rhumerus 58.5883 -2.72527 -0.598012
rradius 100.368
rwrist -15.5447
rhand 0.690382 -8.09071
rfingers 7.12502
rthumb 26.2515 -36.2948
lclavicle -3.762e-014 1.59028e-015
lhumerus 66.7688 -55.7552 29.1282
lradius 106.712
lwrist 46.8055
lhand -12.9053 -34.6825
lfingers 7.12502
lthumb 13.1845 -5.11935
rfemur 0 0 0
rtibia 0
rfoot 0 0
rtoes 0
lfemur 22.3918 -10.6662 -11.1384
ltibia -23.1925
lfoot -1.39361 20.067
ltoes -7.76746
489
root -0.801863 18.0754 5.94617 -2.18289 1.9185 -6.84122
lowerback 5.1136 -3.81488 -4.928
upperback 0.643798 -5.3864 -1.70858
thorax -1.90696 -2.6522 1.33415
lowerneck -17.3015 -4.57095 -7.34243
upperneck 33.2613 -7.33294 7.94028
head 15.087 -3.04243 3.25473
rclavicle -4.09993e-015 -3.18055e-015
rhumerus 58.4998 -2.87171 -0.783612
rradius 100.318
rwrist -16.2755
rhand 0.774717 -8.39464
rfingers 7.12502
rthumb 26.3322 -36.5867
lclavicle -4.09993e-015 -3.18055e-015
lhumerus 67.7963 -56.2324 27.5374
lradius 106.813
lwrist 43.4571
lhand -12.6856 -36.2175
lfingers 7.12502
lthumb 13.3963 -6.66824
rfemur 0 0 0
rtibia 0
rfoot 0 0
rtoes 0
lfemur 22.4252 -10.6812 -11.1611
ltibia -23.1878
lfoot -1.44864 20.1428
ltoes -7.79961
490
root -0.80271 18.0765 5.95627 -2.14765 1.87249 -6.82009
lowerback 5.02728 -3.7739 -4.89817
upperback 0.597211 -5.32724 -1.72703
thorax -1.91471 -2.62224 1.29139
lowerneck -17.3505 -4.62018 -7.26973
upperneck 33.2987 -7.41764 7.89843
head 15.1197 -3.07334 3.20877
rclavicle 3.11346e-014 -4.77083e-015
rhumerus 58.3764 -2.96226 -0.954863
rradius 100.34
rwrist -17.1174
rhand 0.99896 -8.75467
rfingers 7.12502
rthumb 26.5469 -36.9144
lclavicle 3.11346e-014 -4.77083e-015
lhumerus 68.9886 -56.9584 25.6515
lradius 106.874
lwrist 40.3873
lhand -12.3563 -38.4053
lfingers 7.12502
lthumb 13.7136 -8.87713
rfemur 0 0 0
rtibia 0
rfoot 0 0
rtoes 0
lfemur 22.4347 -10.7185 -11.1957
ltibia -23.1621
lfoot -1.50756 20.2225
ltoes -7.86214
491
root -0.803999 18.0772 5.96567 -2.12143 1.82043 -6.80764
lowerback 4.95655 -3.76112 -4.87293
upperback 0.536285 -5.30719 -1.72952
thorax -1.94178 -2.61104 1.27138
lowerneck -17.31 -4.60375 -7.23155
upperneck 33.2741 -7.40638 7.89704
head 15.0954 -3.06501 3.20322
rclavicle 8.05575e-014 -6.36111e-015
rhumerus 58.3289 -2.94266 -1.0734
rradius 100.392
rwrist -17.7745
rhand 1.0865 -9.06496
rfingers 7.12502
rthumb 26.6306 -37.212
lclavicle 8.05575e-014 -6.36111e-015
lhumerus 70.1584 -57.8369 23.5586
lradius 106.892
lwrist 36.9779
lhand -10.8129 -41.0063
lfingers 7.12502
lthumb 15.2007 -11.5846
rfemur 0 0 0
rtibia 0
rfoot 0 0
rtoes 0
lfemur 22.4449 -10.7255 -11.222
ltibia -23.1314
lfoot -1.53647 20.2781
ltoes -7.90427
492
root -0.805911 18.0764 5.97334 -2.10734 1.75664 -6.81639
lowerback 4.84474 -3.75001 -4.82663
upperback 0.533785 -5.28318 -1.74228
thorax -1.88859 -2.60083 1.22341
lowerneck -17.313 -4.54824 -7.09717
upperneck 33.2298 -7.36124 7.88762
head 15.0631 -3.02972 3.18256
rclavicle -3.76448e-014 -4.29375e-014
rhumerus 58.3229 -2.95878 -1.13999
rradius 100.393
rwrist -18.3665
rhand 1.12905 -9.39685
rfingers 7.12502
rthumb 26.6714 -37.5377
lclavicle -3.76448e-014 -4.29375e-014
lhumerus 71.4725 -58.7414 21.1733
lradius 106.808
lwrist 32.8189
lhand -11.4415 -42.982
lfingers 7.12502
lthumb 14.5952 -13.5155
rfemur 0 0 0
rtibia 0
rfoot 0 0
rtoes 0
lfemur 22.4632 -10.7043 -11.2177
ltibia -23.1066
lfoot -1.60311 20.2958
ltoes -7.93116
